<svg xmlns="http://www.w3.org/2000/svg" viewBox="0 0 32 32" width="32" height="32">
  <defs>
    <linearGradient id="leafGradient" x1="0%" y1="0%" x2="100%" y2="100%">
      <stop offset="0%" style="stop-color:#2E7D32;stop-opacity:1" />
      <stop offset="100%" style="stop-color:#00C853;stop-opacity:1" />
    </linearGradient>
  </defs>
  <path d="M16 2C12.7 2 10 4.7 10 8c0 1.4.5 2.7 1.3 3.7L8 18c-.6 1.2-.4 2.6.5 3.5.9.9 2.3 1.1 3.5.5l6.3-3.3c1 .8 2.3 1.3 3.7 1.3 3.3 0 6-2.7 6-6 0-3.3-2.7-6-6-6-1.4 0-2.7.5-3.7 1.3L14 8c-1.2-.6-2.6-.4-3.5.5-.9.9-1.1 2.3-.5 3.5l3.3 6.3c-.8 1-1.3 2.3-1.3 3.7 0 3.3 2.7 6 6 6 3.3 0 6-2.7 6-6 0-1.4-.5-2.7-1.3-3.7L24 14c.6-1.2.4-2.6-.5-3.5-.9-.9-2.3-1.1-3.5-.5l-6.3 3.3c-1-.8-2.3-1.3-3.7-1.3C4.7 10 2 12.7 2 16s2.7 6 6 6c1.4 0 2.7-.5 3.7-1.3L18 24c1.2.6 2.6.4 3.5-.5.9-.9 1.1-2.3.5-3.5l-3.3-6.3c.8-1 1.3-2.3 1.3-3.7C22 4.7 19.3 2 16 2z" fill="url(#leafGradient)"/>
</svg>